# xmcd CD database file
#
# Track frame offsets:
#	150
#	49303
#	85813
#	118253
#	152413
#	188591
#	220830
#
# Disc length: 3153 seconds
#
# Revision: 0
# Processed by: cddbd v1.5.2PL0 Copyright (c) Steve Scherf et al.
# Submitted via: CDex 1.51
#
DISCID=570c4f07
DTITLE=Amrita and Sage - Entering Devachan
DYEAR=2001
DGENRE=New Age
TTITLE0=Invocation
TTITLE1=Gaia's Pulse
TTITLE2=Liquid Memories
TTITLE3=The Healing Heart
TTITLE4=In the Beginning
TTITLE5=Dance of the Divine 
TTITLE6=Crystal Dreaming
EXTD=YEAR: 2001
EXTT0=
EXTT1=
EXTT2=
EXTT3=
EXTT4=
EXTT5=
EXTT6=
PLAYORDER=
